{"title":"Iron Man 3 2013 READNFO CAM EXiT","uid":8420238,"size":1525026861,"categoryP":"video","categoryS":"movies","magnet":"?xt=urn:btih:670420480c7af966fd5dcea85c8773210126cc14&amp;dn=Iron+Man+3+2013+READNFO+CAM+EXiT&amp;tr=udp%3A%2F%2Ftracker.openbittorrent.com%3A80&amp;tr=udp%3A%2F%2Fopen.demonii.com%3A1337&amp;tr=udp%3A%2F%2Ftracker.coppersurfer.tk%3A6969&amp;tr=udp%3A%2F%2Fexodus.desync.com%3A6969","seeders":0,"leechers":0,"uploader":"Gh0stNet","files":3,"time":1367170215,"description":"Format                                   : AVI\nFormat/Info                              : Audio Video Interleave\nFile size                                : 1.41 GiB\nDuration                                 : 1h 57mn\nOverall bit rate                         : 1 709 Kbps\nWriting application                      : VirtualDubMod 1.5.10.2 (build 2540/release)\nWriting library                          : VirtualDubMod build 2540/release\n\nVideo\nID                                       : 0\nFormat                                   : MPEG-4 Visual\nFormat profile                           : Advanced Simple@L5\nFormat settings, BVOP                    : 2\nFormat settings, QPel                    : No\nFormat settings, GMC                     : No warppoints\nFormat settings, Matrix                  : Default (H.263)\nMuxing mode                              : Packed bitstream\nCodec ID                                 : XVID\nCodec ID/Hint                            : XviD\nDuration                                 : 1h 57mn\nBit rate                                 : 1 572 Kbps\nWidth                                    : 678 pixels\nHeight                                   : 278 pixels\nDisplay aspect ratio                     : 2.40:1\nFrame rate                               : 25.000 fps\nColor space                              : YUV\nChroma subsampling                       : 4:2:0\nBit depth                                : 8 bits\nScan type                                : Progressive\nCompression mode                         : Lossy\nBits/(Pixel*Frame)                       : 0.334\nStream size                              : 1.29 GiB (92%)\nWriting library                          : XviD 64\n\nAudio\nID                                       : 1\nFormat                                   : MPEG Audio\nFormat version                           : Version 1\nFormat profile                           : Layer 3\nCodec ID                                 : 55\nCodec ID/Hint                            : MP3\nDuration                                 : 1h 57mn\nBit rate mode                            : Constant\nBit rate                                 : 128 Kbps\nChannel(s)                               : 2 channels\nSampling rate                            : 44.1 KHz\nCompression mode                         : Lossy\nStream size                              : 108 MiB (7%)\nAlignment                                : Split accross interleaves\nInterleave, duration                     : 40 ms (1.00 video frame)\nInterleave, preload duration             : 500 ms\nWriting library                          : LAME3.98.4\n\nSource Used\n\nIron Man 3 2013 CAM Xvid READ NFO UnKnOwN /Thanks\n\nScreens:\n &lt;a href=&quot;\nhttp://i.imgur.com/jRccGCq.png&quot; rel=&quot;nofollow&quot; target=&quot;_NEW&quot;&gt;\nhttp://i.imgur.com/jRccGCq.png&lt;/a&gt; &lt;a href=&quot;\nhttp://i.imgur.com/UeKYWwB.png&quot; rel=&quot;nofollow&quot; target=&quot;_NEW&quot;&gt;\nhttp://i.imgur.com/UeKYWwB.png&lt;/a&gt; &lt;a href=&quot;\nhttp://i.imgur.com/dFelqs7.png&quot; rel=&quot;nofollow&quot; target=&quot;_NEW&quot;&gt;\nhttp://i.imgur.com/dFelqs7.png&lt;/a&gt; &lt;a href=&quot;\nhttp://i.imgur.com/Jptlrf6.png&quot; rel=&quot;nofollow&quot; target=&quot;_NEW&quot;&gt;\nhttp://i.imgur.com/Jptlrf6.png&lt;/a&gt; &lt;a href=&quot;\nhttp://i.imgur.com/t0zItb8.jpg&quot; rel=&quot;nofollow&quot; target=&quot;_NEW&quot;&gt;\nhttp://i.imgur.com/t0zItb8.jpg&lt;/a&gt;","torrent":{"xt":"urn:btih:670420480c7af966fd5dcea85c8773210126cc14","amp;dn":"Iron+Man+3+2013+READNFO+CAM+EXiT","amp;tr":["udp%3A%2F%2Ftracker.openbittorrent.com%3A80","udp%3A%2F%2Fopen.demonii.com%3A1337","udp%3A%2F%2Ftracker.coppersurfer.tk%3A6969","udp%3A%2F%2Fexodus.desync.com%3A6969"],"infoHash":"670420480c7af966fd5dcea85c8773210126cc14","infoHashBuffer":{"type":"Buffer","data":[103,4,32,72,12,122,249,102,253,93,206,168,92,135,115,33,1,38,204,20]},"announce":[],"urlList":[]}}